<mxfile host="app.diagrams.net" modified="2022-01-18T13:52:58.221Z" agent="5.0 (Macintosh; Intel Mac OS X 10_15_7) AppleWebKit/537.36 (KHTML, like Gecko) Chrome/97.0.4692.71 Safari/537.36" etag="sPPt1lvz0GO7-W0wq3-d" version="16.2.7" type="github">
  <diagram id="_cincgZatEzHRaR9vbl5" name="第 1 页">
    <mxGraphModel dx="1186" dy="739" grid="1" gridSize="10" guides="1" tooltips="1" connect="1" arrows="1" fold="1" page="1" pageScale="1" pageWidth="827" pageHeight="1169" math="0" shadow="0">
      <root>
        <mxCell id="0" />
        <mxCell id="1" parent="0" />
        <mxCell id="8bK3yJuN_njHB-aQwybT-3" value="" style="edgeStyle=orthogonalEdgeStyle;rounded=0;orthogonalLoop=1;jettySize=auto;html=1;" edge="1" parent="1" source="8bK3yJuN_njHB-aQwybT-1" target="8bK3yJuN_njHB-aQwybT-2">
          <mxGeometry relative="1" as="geometry" />
        </mxCell>
        <mxCell id="8bK3yJuN_njHB-aQwybT-4" value="跳转到" style="edgeLabel;html=1;align=center;verticalAlign=middle;resizable=0;points=[];" vertex="1" connectable="0" parent="8bK3yJuN_njHB-aQwybT-3">
          <mxGeometry x="-0.125" y="-3" relative="1" as="geometry">
            <mxPoint as="offset" />
          </mxGeometry>
        </mxCell>
        <mxCell id="8bK3yJuN_njHB-aQwybT-1" value="https://example.com" style="rounded=0;whiteSpace=wrap;html=1;" vertex="1" parent="1">
          <mxGeometry x="354" y="30" width="120" height="60" as="geometry" />
        </mxCell>
        <mxCell id="8bK3yJuN_njHB-aQwybT-6" value="" style="edgeStyle=orthogonalEdgeStyle;rounded=0;orthogonalLoop=1;jettySize=auto;html=1;" edge="1" parent="1" source="8bK3yJuN_njHB-aQwybT-2" target="8bK3yJuN_njHB-aQwybT-5">
          <mxGeometry relative="1" as="geometry" />
        </mxCell>
        <mxCell id="8bK3yJuN_njHB-aQwybT-2" value="/blue" style="whiteSpace=wrap;html=1;rounded=0;" vertex="1" parent="1">
          <mxGeometry x="354" y="170" width="120" height="60" as="geometry" />
        </mxCell>
        <mxCell id="8bK3yJuN_njHB-aQwybT-8" value="" style="edgeStyle=orthogonalEdgeStyle;rounded=0;orthogonalLoop=1;jettySize=auto;html=1;" edge="1" parent="1" source="8bK3yJuN_njHB-aQwybT-5" target="8bK3yJuN_njHB-aQwybT-7">
          <mxGeometry relative="1" as="geometry" />
        </mxCell>
        <mxCell id="8bK3yJuN_njHB-aQwybT-9" value="刷新或直接输入链接" style="edgeLabel;html=1;align=center;verticalAlign=middle;resizable=0;points=[];" vertex="1" connectable="0" parent="8bK3yJuN_njHB-aQwybT-8">
          <mxGeometry x="-0.3418" y="4" relative="1" as="geometry">
            <mxPoint as="offset" />
          </mxGeometry>
        </mxCell>
        <mxCell id="8bK3yJuN_njHB-aQwybT-11" value="" style="edgeStyle=orthogonalEdgeStyle;rounded=0;orthogonalLoop=1;jettySize=auto;html=1;" edge="1" parent="1" source="8bK3yJuN_njHB-aQwybT-5" target="8bK3yJuN_njHB-aQwybT-10">
          <mxGeometry relative="1" as="geometry" />
        </mxCell>
        <mxCell id="8bK3yJuN_njHB-aQwybT-12" value="pushstate" style="edgeLabel;html=1;align=center;verticalAlign=middle;resizable=0;points=[];" vertex="1" connectable="0" parent="8bK3yJuN_njHB-aQwybT-11">
          <mxGeometry x="-0.4909" y="-4" relative="1" as="geometry">
            <mxPoint as="offset" />
          </mxGeometry>
        </mxCell>
        <mxCell id="8bK3yJuN_njHB-aQwybT-14" value="" style="edgeStyle=orthogonalEdgeStyle;rounded=0;orthogonalLoop=1;jettySize=auto;html=1;" edge="1" parent="1" source="8bK3yJuN_njHB-aQwybT-5" target="8bK3yJuN_njHB-aQwybT-13">
          <mxGeometry relative="1" as="geometry" />
        </mxCell>
        <mxCell id="8bK3yJuN_njHB-aQwybT-15" value="浏览器回退" style="edgeLabel;html=1;align=center;verticalAlign=middle;resizable=0;points=[];" vertex="1" connectable="0" parent="8bK3yJuN_njHB-aQwybT-14">
          <mxGeometry x="-0.2039" y="-1" relative="1" as="geometry">
            <mxPoint as="offset" />
          </mxGeometry>
        </mxCell>
        <mxCell id="8bK3yJuN_njHB-aQwybT-5" value="跳转类型" style="rhombus;whiteSpace=wrap;html=1;rounded=0;" vertex="1" parent="1">
          <mxGeometry x="374" y="300" width="80" height="80" as="geometry" />
        </mxCell>
        <mxCell id="8bK3yJuN_njHB-aQwybT-7" value="向服务器发送请求，触发onload事件" style="whiteSpace=wrap;html=1;rounded=0;" vertex="1" parent="1">
          <mxGeometry x="560" y="490" width="120" height="60" as="geometry" />
        </mxCell>
        <mxCell id="8bK3yJuN_njHB-aQwybT-10" value="自己封装pushState，执行完操作后调用pushState" style="whiteSpace=wrap;html=1;rounded=0;" vertex="1" parent="1">
          <mxGeometry x="354" y="490" width="120" height="60" as="geometry" />
        </mxCell>
        <mxCell id="8bK3yJuN_njHB-aQwybT-13" value="触发popState事件" style="whiteSpace=wrap;html=1;rounded=0;" vertex="1" parent="1">
          <mxGeometry x="160" y="490" width="120" height="60" as="geometry" />
        </mxCell>
      </root>
    </mxGraphModel>
  </diagram>
</mxfile>
